C:/Program Files/Krita (x64)/bin/ffmpeg.exe -hide_banner -y -y -r 24 -start_number 0 -start_number_range 1 -i C:/Users/text2/Documents/RAg/RAG-MODEL-PROJECT/frontend/public/frame%04d.png -i C:/Users/text2/Documents/RAg/RAG-MODEL-PROJECT/frontend/public/KritaTempPalettegen_%06d.png -lavfi [0:v][1:v]paletteuse=dither=sierra2_4a:diff_mode=none -f gif -loop 0 -gifflags +transdiff C:/Users/text2/Documents/RAg/RAG-MODEL-PROJECT/frontend/public/Untitled.gif
=====================================================
Input #0, image2, from 'C:/Users/text2/Documents/RAg/RAG-MODEL-PROJECT/frontend/public/frame%04d.png':
  Duration: 00:00:09.60, start: 0.000000, bitrate: N/A
  Stream #0:0: Video: png, rgba(pc), 1920x1080 [SAR 11811:11811 DAR 16:9], 25 fps, 25 tbr, 25 tbn, 25 tbc
Input #1, image2, from 'C:/Users/text2/Documents/RAg/RAG-MODEL-PROJECT/frontend/public/KritaTempPalettegen_%06d.png':
  Duration: 00:00:00.04, start: 0.000000, bitrate: N/A
  Stream #1:0: Video: png, rgba(pc), 16x16 [SAR 1:1 DAR 1:1], 25 fps, 25 tbr, 25 tbn, 25 tbc
Stream mapping:
  Stream #0:0 (png) -> paletteuse:default
  Stream #1:0 (png) -> paletteuse:palette
  paletteuse -> Stream #0:0 (gif)
Press [q] to stop, [?] for help
[image2 @ 00000168e549e700] Thread message queue blocking; consider raising the thread_queue_size option (current value: 8)
Output #0, gif, to 'C:/Users/text2/Documents/RAg/RAG-MODEL-PROJECT/frontend/public/Untitled.gif':
  Metadata:
    encoder         : Lavf58.76.100
  Stream #0:0: Video: gif, pal8(pc, gbr/unknown/unknown, progressive), 1920x1080 [SAR 1:1 DAR 16:9], q=2-31, 200 kb/s, 24 fps, 100 tbn (default)
    Metadata:
      encoder         : Lavc58.134.100 gif
frame=    1 fps=0.0 q=-0.0 size=       0kB time=00:00:00.01 bitrate=   0.0kbits/s speed=0.223x    frame=    8 fps=0.0 q=-0.0 size=    1280kB time=00:00:00.30 bitrate=34952.5kbits/s speed=0.542x    frame=   16 fps= 15 q=-0.0 size=    2816kB time=00:00:00.64 bitrate=36044.8kbits/s speed=0.58x    frame=   24 fps= 15 q=-0.0 size=    4352kB time=00:00:00.97 bitrate=36754.2kbits/s speed=0.599x    frame=   32 fps= 15 q=-0.0 size=    5888kB time=00:00:01.30 bitrate=37103.5kbits/s speed=0.609x    frame=   41 fps= 15 q=-0.0 size=    7680kB time=00:00:01.68 bitrate=37449.1kbits/s speed=0.625x    frame=   49 fps= 15 q=-0.0 size=    9472kB time=00:00:02.01 bitrate=38604.3kbits/s speed=0.63x    frame=   58 fps= 16 q=-0.0 size=   11264kB time=00:00:02.39 bitrate=38608.7kbits/s speed=0.641x    frame=   67 fps= 16 q=-0.0 size=   13056kB time=00:00:02.76 bitrate=38751.7kbits/s speed=0.646x    frame=   75 fps= 16 q=-0.0 size=   14592kB time=00:00:03.09 bitrate=38685.3kbits/s speed=0.647x    frame=   83 fps= 16 q=-0.0 size=   16384kB time=00:00:03.43 bitrate=39130.5kbits/s speed=0.646x    frame=   91 fps= 15 q=-0.0 size=   17920kB time=00:00:03.76 bitrate=39042.7kbits/s speed=0.639x    frame=   98 fps= 15 q=-0.0 size=   19200kB time=00:00:04.05 bitrate=38836.1kbits/s speed=0.629x    frame=  105 fps= 15 q=-0.0 size=   20736kB time=00:00:04.34 bitrate=39140.4kbits/s speed=0.617x    frame=  111 fps= 15 q=-0.0 size=   22016kB time=00:00:04.59 bitrate=39293.0kbits/s speed=0.602x    frame=  116 fps= 14 q=-0.0 size=   23040kB time=00:00:04.80 bitrate=39321.6kbits/s speed=0.59x    frame=  120 fps= 14 q=-0.0 size=   23808kB time=00:00:04.97 bitrate=39242.5kbits/s speed=0.575x    frame=  125 fps= 14 q=-0.0 size=   24832kB time=00:00:05.18 bitrate=39271.0kbits/s speed=0.562x    frame=  129 fps= 13 q=-0.0 size=   25600kB time=00:00:05.34 bitrate=39272.5kbits/s speed=0.548x    frame=  134 fps= 13 q=-0.0 size=   26880kB time=00:00:05.55 bitrate=39675.8kbits/s speed=0.535x    frame=  139 fps= 13 q=-0.0 size=   27904kB time=00:00:05.76 bitrate=39685.7kbits/s speed=0.526x    frame=  145 fps= 13 q=-0.0 size=   28928kB time=00:00:06.01 bitrate=39430.6kbits/s speed=0.523x    frame=  151 fps= 13 q=-0.0 size=   30208kB time=00:00:06.26 bitrate=39531.0kbits/s speed=0.519x    frame=  157 fps= 12 q=-0.0 size=   31488kB time=00:00:06.51 bitrate=39623.6kbits/s speed=0.514x    frame=  163 fps= 12 q=-0.0 size=   32768kB time=00:00:06.76 bitrate=39709.4kbits/s speed=0.51x    frame=  168 fps= 12 q=-0.0 size=   33792kB time=00:00:06.97 bitrate=39716.5kbits/s speed=0.506x    frame=  173 fps= 12 q=-0.0 size=   34816kB time=00:00:07.18 bitrate=39723.2kbits/s speed=0.502x    frame=  179 fps= 12 q=-0.0 size=   36096kB time=00:00:07.43 bitrate=39797.9kbits/s speed=0.501x    frame=  185 fps= 12 q=-0.0 size=   37376kB time=00:00:07.68 bitrate=39867.7kbits/s speed=0.498x    frame=  191 fps= 12 q=-0.0 size=   38656kB time=00:00:07.93 bitrate=39933.2kbits/s speed=0.495x    frame=  197 fps= 12 q=-0.0 size=   39936kB time=00:00:08.18 bitrate=39994.6kbits/s speed=0.493x    frame=  203 fps= 12 q=-0.0 size=   41216kB time=00:00:08.43 bitrate=40052.4kbits/s speed=0.492x    frame=  209 fps= 12 q=-0.0 size=   42496kB time=00:00:08.68 bitrate=40106.8kbits/s speed=0.492x    frame=  216 fps= 12 q=-0.0 size=   43776kB time=00:00:08.97 bitrate=39979.2kbits/s speed=0.493x    frame=  222 fps= 12 q=-0.0 size=   45056kB time=00:00:09.22 bitrate=40032.4kbits/s speed=0.491x    frame=  228 fps= 12 q=-0.0 size=   46336kB time=00:00:09.47 bitrate=40082.8kbits/s speed=0.492x    frame=  235 fps= 12 q=-0.0 size=   47616kB time=00:00:09.76 bitrate=39966.2kbits/s speed=0.492x    frame=  240 fps= 12 q=-0.0 size=   48640kB time=00:00:09.97 bitrate=39965.8kbits/s speed=0.49x    frame=  240 fps= 12 q=-0.0 Lsize=   48930kB time=00:00:09.97 bitrate=40203.7kbits/s speed=0.49x    
video:48930kB audio:0kB subtitle:0kB other streams:0kB global headers:0kB muxing overhead: 0.000040%
